<?xml version="1.0" encoding="UTF-8"?>
<svg id="b" data-name="Layer 2" xmlns="http://www.w3.org/2000/svg" width="72.037" height="72.037" viewBox="0 0 72.037 72.037">
  <g id="c" data-name="Layer 1">
    <path d="M36.018,0C16.158,0,0,16.158,0,36.018s16.158,36.018,36.018,36.018,36.019-16.158,36.019-36.018S55.879,0,36.018,0ZM48.809,20.508h-.626c-1.522.003-3.039-.036-4.556.014-2.081.075-3.623.868-3.696,3.466-.052,1.897-.073,6.268-.073,6.268,0,0,4.887.009,7.016,0,.541-.002,1.081,0,1.683,0-.394,3.024-.768,5.928-1.152,8.86h-7.486v22.133h-9.179v-22.168h-7.511v-8.819h7.556v-.663c-.004-1.774-.038-3.545.006-5.317.029-1.129.079-2.278.274-3.388.471-2.691,1.709-4.968,3.965-6.591,1.967-1.409,4.218-1.989,6.598-2.039,1.559-.036,3.118.042,4.674.111.848.04,1.697.158,2.508.239v7.895Z" fill="white" stroke-width="0"/>
  </g>
</svg>