<svg xmlns="http://www.w3.org/2000/svg" width="1798.003" height="1587.809" viewBox="0 0 1798.003 1587.809">
  <defs>
    <style>
      .cls-1 {
        fill: #2e3678;
        fill-rule: evenodd;
      }
    </style>
  </defs>
  <path id="_Path_" data-name="&lt;Path&gt;" class="cls-1" d="M725.787,1172.25a43.307,43.307,0,1,0,43.308-43.3A43.305,43.305,0,0,0,725.787,1172.25Zm349.583,0a43.305,43.305,0,1,0-43.3,43.3A43.3,43.3,0,0,0,1075.37,1172.25Zm0,259.71a43.305,43.305,0,1,0-43.3,43.3A43.3,43.3,0,0,0,1075.37,1431.96Zm-262.969,0a43.307,43.307,0,1,0-43.306,43.3A43.305,43.305,0,0,0,812.4,1431.96ZM1786.21,967.631c-78.1-12.832-477.92-75.061-886.071-75.061-409.673,0-810.984,62.693-886.96,75.2A14.487,14.487,0,0,0,.937,981.867c-0.249,72.273,65.6,126.683,136.475,112.833,31.8-6.21,67.777-12.55,106.408-18.19,32.329-4.71,60.217,22.78,55.805,55.14l-59.906,439.5a14.715,14.715,0,0,0,14.58,16.7H364.147a14.714,14.714,0,0,0,14.67-13.57l13.937-178.51a72,72,0,0,1,142.685,0l16.518,178.72a14.714,14.714,0,0,0,14.652,13.36H676.65a14.715,14.715,0,0,0,14.58-16.7l-26.348-193.3a14.715,14.715,0,0,1,12.543-16.56l175.6-24.54a11.379,11.379,0,0,1,12.843,12.84l-31.5,225.31a11.378,11.378,0,0,0,11.269,12.95H955.518a11.378,11.378,0,0,0,11.269-12.95l-31.479-225.18a11.375,11.375,0,0,1,12.844-12.84l176.258,24.63a14.715,14.715,0,0,1,12.54,16.56l-26.32,193.08a14.721,14.721,0,0,0,14.58,16.7h109.93a14.711,14.711,0,0,0,14.66-13.49l14.12-168.41a72,72,0,0,1,71.35-62.27h0a71.994,71.994,0,0,1,71.34,62.27l16.21,168.59a14.722,14.722,0,0,0,14.65,13.31h110.09a14.71,14.71,0,0,0,14.58-16.7l-59.87-439.26a49.083,49.083,0,0,1,55.84-55.13c36.63,5.41,70.63,11.45,100.78,17.41,71.16,14.05,137.9-39.03,140.05-111.52h0A15.192,15.192,0,0,0,1786.21,967.631ZM853.029,1267.46l-196.1-27.41a14.707,14.707,0,0,1-12.543-12.58l-18.3-134.25a48.971,48.971,0,0,1,46.1-55.47c49.083-2.53,99.165-4.37,149.529-5.35a14.746,14.746,0,0,1,14.868,12.69l29.291,209.53A11.38,11.38,0,0,1,853.029,1267.46Zm95.122-.13a11.376,11.376,0,0,1-12.844-12.84l29.27-209.38a14.741,14.741,0,0,1,14.872-12.69c50.661,1,101.031,2.86,150.371,5.42a49.005,49.005,0,0,1,45.93,55.59l-18.24,133.81a14.712,14.712,0,0,1-12.54,12.58ZM311.037,710.535L18.831,738.164c-16.355,1.545-20.255,23.66-5.416,30.706L261.267,886.547a62.831,62.831,0,0,0,36.266,5.32l0.744-.111c24.735-3.7,42.61-26.465,39.167-51.232a117.448,117.448,0,0,1-.246-30.212c6.291-52.412,48.736-94.382,101.217-100.154,49.813-5.479,93.677,21.094,114.691,61.5,0.944,1.742,4.71,8.094,11.348,8.094s10.432-5.151,12.18-11.839c35.159-139.965,172.728-243.852,323.5-244.423,150.771,0.571,288.341,104.458,323.491,244.423,1.75,6.688,5.55,11.839,12.18,11.839s10.41-6.352,11.35-8.094c21.02-40.406,64.88-66.979,114.69-61.5,52.48,5.772,94.93,47.742,101.22,100.154a117.266,117.266,0,0,1-.25,30.212c-3.44,24.767,14.44,47.535,39.17,51.232l0.74,0.111a62.834,62.834,0,0,0,36.27-5.32L1786.84,768.87c14.84-7.046,10.94-29.161-5.41-30.706l-292.21-27.629a16.169,16.169,0,0,1-9.99-27.452L1685.31,474.13c11.53-11.7.3-31.144-15.6-27l-284.03,73.959a16.17,16.17,0,0,1-18.78-22.38l122.17-266.821c6.84-14.934-10.37-29.368-23.89-20.042L1223.57,378.466a16.169,16.169,0,0,1-25.3-14.607l23.52-292.508c1.32-16.371-19.79-24.051-29.3-10.664L1022.45,299.88a16.173,16.173,0,0,1-28.773-5.072L915.722,11.9a16.175,16.175,0,0,0-31.186,0L806.581,294.808A16.176,16.176,0,0,1,777.8,299.88L607.77,60.688c-9.517-13.388-30.622-5.707-29.306,10.664l23.527,292.508a16.174,16.174,0,0,1-25.306,14.607L335.08,211.842c-13.522-9.326-30.727,5.108-23.89,20.042L433.362,498.705a16.172,16.172,0,0,1-18.783,22.38L130.544,447.126c-15.9-4.14-27.128,15.308-15.594,27L321.031,683.083A16.17,16.17,0,0,1,311.037,710.535Z" transform="translate(-0.938 -0.031)"/>
</svg>
