<?xml version="1.0" encoding="UTF-8"?>
<svg id="b" data-name="Layer 2" xmlns="http://www.w3.org/2000/svg" width="72.037" height="72.037" viewBox="0 0 72.037 72.037">
  <g id="c" data-name="Layer 1">
    <g>
      <path d="M36.516,28.767c-4.048-.036-7.359,3.216-7.395,7.264-.036,4.048,3.216,7.359,7.264,7.395,4.048.036,7.359-3.216,7.395-7.264.037-4.048-3.215-7.359-7.264-7.396Z" fill="white" stroke-width="0"/>
      <path d="M47.56,18.427c-3.752-.575-17.843-.527-21.76-.088-3.86.431-6.422,2.82-7.005,6.648-.619,4.068-.495,19.266.007,22.308.526,3.185,2.335,5.36,5.498,6.244,3.307.925,19.231.71,22.797.319,3.882-.424,6.446-2.816,7.036-6.677.598-3.899.485-18.079.091-21.706-.423-3.888-2.811-6.456-6.664-7.048ZM36.45,47.438c-6.26-.004-11.332-5.081-11.329-11.341s5.081-11.332,11.341-11.329c6.26.004,11.332,5.081,11.329,11.341-.004,6.26-5.081,11.332-11.341,11.328ZM48.233,26.988c-1.466-.003-2.651-1.195-2.647-2.66.003-1.465,1.194-2.651,2.66-2.647,1.465.004,2.651,1.195,2.647,2.66-.004,1.466-1.194,2.651-2.66,2.647Z" fill="white" stroke-width="0"/>
      <path d="M36.018,0C16.158,0,0,16.158,0,36.018s16.158,36.018,36.018,36.018,36.019-16.158,36.019-36.018S55.879,0,36.018,0ZM57.899,48.863c-1.322,5.03-4.596,8.018-9.683,8.84-3.846.623-20.983.739-24.469-.162-5.039-1.298-8.043-4.557-8.881-9.641-.615-3.718-.824-21.053.229-24.815,1.369-4.89,4.614-7.778,9.564-8.585,4.332-.707,16.669-.528,21.864-.245,3.05.162,5.831,1.121,8.106,3.292,2.163,2.062,3.277,4.636,3.575,7.544.353,3.483.707,19.91-.304,23.771Z" fill="white" stroke-width="0"/>
    </g>
  </g>
</svg>