<?xml version="1.0" encoding="UTF-8"?>
<svg id="b" data-name="Layer 2" xmlns="http://www.w3.org/2000/svg" width="72.037" height="72.037" viewBox="0 0 72.037 72.037">
  <g id="c" data-name="Layer 1">
    <path d="M36.018,0C16.157,0,0,16.158,0,36.018s16.157,36.019,36.018,36.019,36.018-16.158,36.018-36.019S55.879,0,36.018,0ZM26.643,54.495h-8.47v-27.208h8.47v27.208ZM22.409,23.573c-2.715,0-4.91-2.201-4.91-4.907s2.195-4.9,4.91-4.9,4.903,2.197,4.903,4.9-2.195,4.907-4.903,4.907ZM58.323,54.495h-8.451v-13.228c0-3.158-.062-7.215-4.396-7.215-4.403,0-5.074,3.437-5.074,6.985v13.459h-8.453v-27.208h8.112v3.721h.111c1.131-2.141,3.89-4.395,8.008-4.395,8.563,0,10.142,5.631,10.142,12.959v14.923Z" fill="#000" stroke-width="0"/>
  </g>
</svg>