<?xml version="1.0" encoding="UTF-8"?>
<svg id="b" data-name="Layer 2" xmlns="http://www.w3.org/2000/svg" width="544.238" height="96.91" viewBox="0 0 544.238 96.91">
  <g id="c" data-name="Layer 1">
    <g>
      <g>
        <polygon points="107.615 22.529 121 22.529 121 70.8 107.615 70.8 107.615 85.062 152.047 85.062 152.047 70.8 138.772 70.8 138.772 22.529 152.047 22.529 152.047 8.267 107.615 8.267 107.615 22.529" fill="#2c367c" stroke-width="0"/>
        <path d="M164.431,8.267v76.795h39.714c20.186,0,30.718-7.68,30.718-20.954,0-9.644-5.474-16.223-14.015-18.971-.011-.003-.012-.017-.002-.022,6.239-3.294,10.177-9.212,10.177-16.881,0-11.958-9.874-19.967-29.072-19.967h-37.52ZM216.98,62.243c0,6.582-4.937,9.435-14.152,9.435h-20.735v-18.979h20.735c9.215,0,14.152,3.072,14.152,9.545ZM213.141,30.647c0,6.034-4.717,9.106-13.384,9.106h-17.663v-18.102h17.663c8.667,0,13.384,2.962,13.384,8.996Z" fill="#2c367c" stroke-width="0"/>
        <path d="M305.261,67.293c-.458-1.116-1.792-1.581-2.837-.979-6.307,3.633-15.06,5.692-23.187,5.692-13.275,0-18.979-3.949-18.979-9.764,0-5.924,5.156-8.996,13.933-8.996h20.05c1.105,0,2.001-.896,2.001-2.001v-10.04c0-1.105-.896-2.001-2.001-2.001h-18.953c-8.009,0-11.739-3.072-11.739-8.338,0-5.595,5.376-9.545,17.224-9.545,6.581,0,13.071,1.178,19.47,3.863,1.054.442,2.263-.084,2.653-1.158l3.574-9.85c.362-.996-.111-2.107-1.085-2.524-6.866-2.936-15.975-4.704-25.271-4.704-23.587,0-34.558,10.642-34.558,22.709,0,5.76,2.362,10.757,6.641,14.105,1.101.861.951,2.583-.259,3.283-5.936,3.434-9.673,9.228-9.673,16.402,0,13.275,12.397,22.929,36.203,22.929,11.604,0,22.536-2.595,29.915-6.976.852-.506,1.199-1.564.823-2.481l-3.946-9.627Z" fill="#2c367c" stroke-width="0"/>
        <path d="M369.724,60.381s.848-.364,1.759-.823c8.903-4.489,14.037-12.601,14.037-23.426,0-17.224-12.836-27.866-33.351-27.866h-33.241v76.795h17.773v-21.393h16.318s.215.27.528.722l14.311,20.671h19.089l-17.222-24.681ZM351.181,49.517h-14.481v-26.769h14.481c10.861,0,16.346,4.937,16.346,13.384,0,8.338-5.485,13.384-16.346,13.384Z" fill="#2c367c" stroke-width="0"/>
        <path d="M448.081,60.381s.848-.364,1.759-.823c8.903-4.489,14.037-12.601,14.037-23.426,0-17.224-12.836-27.866-33.351-27.866h-33.241v76.795h17.773v-21.393h16.318s.215.27.528.722l14.311,20.671h19.089l-17.222-24.681ZM429.538,49.517h-14.481v-26.769h14.481c10.861,0,16.346,4.937,16.346,13.384,0,8.338-5.485,13.384-16.346,13.384Z" fill="#2c367c" stroke-width="0"/>
        <path d="M526.465,8.267v23.916c0,13.604-7.46,19.418-17.882,19.418-10.203,0-16.346-6.034-16.346-18.212V8.267h-17.773v26.22c0,20.844,10.971,32.144,30.279,32.144,9.106,0,16.566-3.072,21.722-9.435v4.718c0,13.713-6.253,19.967-18.979,19.967-9.106,0-17.443-2.852-24.355-8.447,0,0,0,0,0,0l-6.911,13.163s0,.002,0,.003c7.46,6.362,18.321,10.311,31.704,10.311,22.38,0,36.313-12.507,36.313-35.874V8.267h-17.773Z" fill="#2c367c" stroke-width="0"/>
      </g>
      <g>
        <path d="M18.198,25.458c0,3.905,3.166,7.071,7.071,7.071s7.071-3.166,7.071-7.071-3.166-7.071-7.071-7.071-7.071,3.166-7.071,7.071Z" fill="#2c367c" stroke-width="0"/>
        <path d="M75.277,25.458c0-3.905-3.166-7.071-7.071-7.071s-7.071,3.166-7.071,7.071,3.166,7.071,7.071,7.071,7.071-3.166,7.071-7.071Z" fill="#2c367c" stroke-width="0"/>
        <path d="M75.277,67.871c0-3.905-3.166-7.071-7.071-7.071s-7.071,3.166-7.071,7.071,3.166,7.071,7.071,7.071,7.071-3.166,7.071-7.071Z" fill="#2c367c" stroke-width="0"/>
        <path d="M32.34,67.871c0-3.905-3.166-7.071-7.071-7.071s-7.071,3.166-7.071,7.071,3.166,7.071,7.071,7.071,7.071-3.166,7.071-7.071Z" fill="#2c367c" stroke-width="0"/>
        <path d="M91.213,35.854l-36.709,5.131c-1.222.171-2.268-.875-2.097-2.097L57.548,2.115c.156-1.117-.712-2.115-1.84-2.115h-17.94c-1.128,0-1.996.997-1.84,2.115l5.143,36.795c.171,1.222-.875,2.268-2.097,2.097L2.115,35.854c-1.117-.156-2.115.712-2.115,1.84v17.94c0,1.128.997,1.996,2.115,1.84l36.859-5.152c1.222-.171,2.268.875,2.097,2.097l-5.143,36.794c-.156,1.117.712,2.115,1.84,2.115h17.94c1.128,0,1.996-.997,1.84-2.115l-5.14-36.773c-.171-1.222.875-2.268,2.097-2.097l36.709,5.131c1.117.156,2.115-.712,2.115-1.84v-17.94c0-1.128-.997-1.996-2.115-1.84Z" fill="#2c367c" stroke-width="0"/>
      </g>
    </g>
  </g>
</svg>