<?xml version="1.0" encoding="UTF-8"?>
<svg id="b" data-name="Layer 2" xmlns="http://www.w3.org/2000/svg" width="436.622" height="207.667" viewBox="0 0 436.622 207.667">
  <g id="c" data-name="Layer 1">
    <g>
      <g>
        <polygon points="0 58.149 13.384 58.149 13.384 106.421 0 106.421 0 120.683 44.432 120.683 44.432 106.421 31.157 106.421 31.157 58.149 44.432 58.149 44.432 43.887 0 43.887 0 58.149" fill="#2c367c" stroke-width="0"/>
        <path d="M56.815,43.887v76.795h39.714c20.186,0,30.718-7.68,30.718-20.954,0-9.644-5.474-16.223-14.015-18.971-.011-.003-.012-.017-.002-.022,6.239-3.294,10.177-9.212,10.177-16.881,0-11.958-9.874-19.967-29.072-19.967h-37.52ZM109.365,97.863c0,6.582-4.937,9.435-14.152,9.435h-20.735v-18.979h20.735c9.215,0,14.152,3.072,14.152,9.545ZM105.525,66.268c0,6.034-4.717,9.106-13.384,9.106h-17.663v-18.102h17.663c8.667,0,13.384,2.962,13.384,8.996Z" fill="#2c367c" stroke-width="0"/>
        <path d="M197.646,102.914c-.458-1.116-1.792-1.581-2.837-.979-6.307,3.633-15.06,5.692-23.187,5.692-13.275,0-18.979-3.949-18.979-9.764,0-5.924,5.156-8.996,13.933-8.996h20.05c1.105,0,2.001-.896,2.001-2.001v-10.04c0-1.105-.896-2.001-2.001-2.001h-18.953c-8.009,0-11.739-3.072-11.739-8.338,0-5.595,5.376-9.545,17.224-9.545,6.581,0,13.071,1.178,19.47,3.863,1.054.442,2.263-.084,2.653-1.158l3.574-9.85c.362-.996-.111-2.107-1.085-2.524-6.866-2.936-15.975-4.704-25.271-4.704-23.587,0-34.558,10.642-34.558,22.709,0,5.76,2.362,10.757,6.641,14.105,1.101.861.951,2.583-.259,3.283-5.936,3.434-9.673,9.228-9.673,16.402,0,13.275,12.397,22.929,36.203,22.929,11.604,0,22.536-2.595,29.915-6.976.852-.506,1.199-1.564.823-2.481l-3.946-9.627Z" fill="#2c367c" stroke-width="0"/>
        <path d="M262.108,96.002s.848-.364,1.759-.823c8.903-4.489,14.037-12.601,14.037-23.426,0-17.224-12.836-27.866-33.351-27.866h-33.241v76.795h17.773v-21.393h16.318s.215.27.528.722l14.311,20.671h19.089l-17.222-24.681ZM243.566,85.137h-14.481v-26.769h14.481c10.861,0,16.346,4.937,16.346,13.384,0,8.338-5.485,13.384-16.346,13.384Z" fill="#2c367c" stroke-width="0"/>
        <path d="M340.465,96.002s.848-.364,1.759-.823c8.903-4.489,14.037-12.601,14.037-23.426,0-17.224-12.836-27.866-33.351-27.866h-33.241v76.795h17.773v-21.393h16.318s.215.27.528.722l14.311,20.671h19.089l-17.222-24.681ZM321.923,85.137h-14.481v-26.769h14.481c10.861,0,16.346,4.937,16.346,13.384,0,8.338-5.485,13.384-16.346,13.384Z" fill="#2c367c" stroke-width="0"/>
        <path d="M418.85,43.887v23.916c0,13.604-7.46,19.418-17.882,19.418-10.203,0-16.346-6.034-16.346-18.212v-25.123h-17.773v26.22c0,20.844,10.971,32.144,30.279,32.144,9.106,0,16.566-3.072,21.722-9.435v4.718c0,13.713-6.253,19.967-18.979,19.967-9.106,0-17.443-2.852-24.355-8.447,0,0,0,0,0,0l-6.911,13.163s0,.002,0,.003c7.46,6.362,18.321,10.311,31.704,10.311,22.38,0,36.313-12.507,36.313-35.874v-52.769h-17.773Z" fill="#2c367c" stroke-width="0"/>
      </g>
      <g>
        <path d="M151.447,170.171l-6.089-6.94c-.213-.243-.584-.268-.827-.054l-2.644,2.319c-.243.213-.268.584-.054.827l1.546,1.762c.213.243.189.613-.054.827l-.22.193c-.243.214-.614.19-.827-.054l-4.11-4.684c-.146-.167-.186-.402-.102-.608l1.607-3.945c.07-.171.216-.299.394-.346l4.121-1.081c.215-.056.443.014.589.18l4.11,4.685c.213.243.189.614-.054.827h0c-.243.214-.267.584-.054.827l3.77,4.296c.214.243.584.267.827.054l4.405-3.866c.243-.214.267-.584.054-.827l-11.845-13.5c-.145-.165-.37-.235-.583-.182l-10.551,2.639c-.184.046-.334.178-.403.354l-3.989,10.118c-.081.204-.04.437.105.602l11.845,13.5c.214.243.584.268.827.054l8.151-7.151c.243-.214.268-.584.054-.827Z" fill="#2c367c" stroke-width="0"/>
        <path d="M175.479,185.247l3.614-5.691c.174-.273.093-.636-.181-.809l-16.947-10.763c-.273-.174-.635-.093-.809.181l-10.371,16.329c-.174.273-.093.636.181.809l16.948,10.763c.273.174.636.093.809-.181l3.613-5.69c.174-.273.093-.635-.181-.809l-4.824-3.064c-.273-.174-.636-.093-.809.181l-.629.99c-.174.273-.536.354-.809.181l-5.072-3.221c-.273-.174-.354-.536-.181-.809l.471-.742c.174-.273.536-.354.809-.181l3.711,2.357c.273.174.636.093.809-.181l2.043-3.217c.174-.273.093-.636-.181-.809l-3.711-2.357c-.273-.174-.354-.536-.181-.809l.629-.989c.174-.273.536-.354.809-.18l5.071,3.221c.273.174.354.536.181.809l-.628.989c-.174.273-.093.635.181.809l4.824,3.064c.273.174.636.093.809-.181Z" fill="#2c367c" stroke-width="0"/>
        <path d="M179.945,198.488c.811,1.304,1.879,2.467,3.206,3.489,1.326,1.022,2.873,1.781,4.641,2.279,1.768.497,3.484.655,5.149.473,1.665-.181,3.182-.617,4.554-1.307,1.37-.69,2.547-1.592,3.531-2.706.983-1.114,1.667-2.357,2.053-3.731.385-1.373.449-2.791.191-4.254-.258-1.463-.793-2.846-1.604-4.149-.811-1.304-1.879-2.467-3.205-3.489-1.327-1.022-2.874-1.781-4.642-2.278-1.768-.497-3.484-.655-5.149-.473-1.665.182-3.183.618-4.554,1.308-1.372.69-2.548,1.592-3.531,2.706-.983,1.114-1.667,2.358-2.053,3.731-.386,1.373-.45,2.791-.191,4.254.258,1.463.793,2.846,1.604,4.149ZM185.727,192.106c.195-.696.512-1.317.949-1.864.438-.547.953-.986,1.543-1.318.59-.331,1.227-.542,1.914-.633.685-.092,1.385-.038,2.1.164.696.195,1.318.512,1.864.95.547.438.986.952,1.318,1.542.331.59.541,1.233.63,1.928.088.694.035,1.39-.16,2.085-.201.716-.519,1.341-.954,1.878-.436.538-.949.972-1.538,1.303-.591.331-1.233.542-1.928.63-.694.09-1.39.035-2.086-.16-.715-.201-1.341-.519-1.878-.954-.538-.435-.972-.947-1.303-1.539-.332-.59-.543-1.227-.634-1.913-.092-.685-.037-1.385.164-2.1Z" fill="#2c367c" stroke-width="0"/>
        <path d="M224.7,207.362l6.307-.127c.436-.009.71-.473.507-.859l-2.775-5.282c-.203-.386.071-.85.507-.859l1.249-.025c.324-.007.581-.274.574-.598l-.248-12.307c-.007-.324-.274-.581-.598-.574l-21.097.425c-.324.007-.581.274-.574.598l.39,19.34c.007.324.274.581.598.574l6.007-.121c.324-.007.581-.274.574-.598l-.118-5.861c-.007-.324.251-.591.574-.598l3.741-.075c.222-.004.427.117.531.313l3.321,6.32c.103.197.309.318.531.313ZM215.873,194.641l-.03-1.465c-.007-.324.25-.591.574-.598l6.74-.136c.324-.007.591.251.598.574l.029,1.465c.006.324-.251.591-.574.598l-6.739.136c-.324.007-.591-.25-.598-.574Z" fill="#2c367c" stroke-width="0"/>
        <path d="M261.731,198.191l-3.355-10.312c-.1-.308-.431-.476-.739-.376l-8.779,2.856c-.308.1-.476.431-.376.739l1.088,3.345c.1.308.431.476.739.376l2.23-.725c.308-.1.638.068.739.376l.091.278c.1.308-.068.639-.376.739l-5.927,1.928c-.211.069-.443.012-.599-.146l-2.99-3.033c-.13-.131-.19-.316-.162-.499l.633-4.213c.033-.22.187-.402.398-.47l5.926-1.928c.308-.1.638.068.739.376h0c.1.308.431.476.739.376l5.435-1.768c.308-.1.476-.431.376-.739l-1.814-5.574c-.1-.308-.431-.476-.739-.376l-17.079,5.556c-.209.068-.362.247-.397.464l-1.737,10.736c-.03.187.032.377.166.51l7.722,7.659c.156.155.385.209.594.141l17.079-5.556c.308-.1.476-.431.376-.739Z" fill="#2c367c" stroke-width="0"/>
        <path d="M270.183,194.305l11.995-7.628c.273-.174.354-.536.18-.809l-2.516-3.957c-.174-.273-.536-.354-.809-.18l-2.473,1.573c-.273.174-.635.093-.809-.18l-4.088-6.43c-.174-.273-.093-.635.18-.809l2.473-1.573c.273-.174.354-.536.18-.809l-2.516-3.958c-.174-.273-.536-.354-.809-.18l-11.995,7.627c-.273.174-.354.536-.18.809l2.516,3.957c.174.273.536.354.809.18l2.473-1.573c.273-.174.635-.093.809.18l4.088,6.43c.174.273.093.635-.18.809l-2.473,1.573c-.273.174-.354.536-.18.809l2.516,3.958c.174.273.536.354.809.18Z" fill="#2c367c" stroke-width="0"/>
        <path d="M301.511,168.513l4.529-4.827c.29-.309.166-.814-.234-.954l-19.968-6.988c-.219-.077-.462-.017-.621.152l-5.695,6.069c-.159.169-.203.416-.112.63l8.245,19.483c.165.39.677.482.967.173l4.529-4.827c.163-.174.205-.428.106-.645l-1.121-2.452c-.099-.216-.057-.471.106-.645l5.477-5.838c.163-.174.414-.231.637-.146l2.519.963c.222.085.474.027.637-.146ZM290.118,168.234c-.283.302-.781.223-.957-.151l-2.189-4.634.2-.214,4.765,1.89c.384.152.494.644.211.946l-2.03,2.164Z" fill="#2c367c" stroke-width="0"/>
      </g>
      <g>
        <path d="M209.329,145.722c0,1.232.999,2.231,2.231,2.231s2.231-.999,2.231-2.231-.999-2.231-2.231-2.231-2.231.999-2.231,2.231Z" fill="#2c367c" stroke-width="0"/>
        <path d="M227.34,145.722c0-1.232-.999-2.231-2.231-2.231s-2.231.999-2.231,2.231.999,2.231,2.231,2.231,2.231-.999,2.231-2.231Z" fill="#2c367c" stroke-width="0"/>
        <path d="M227.34,159.105c0-1.232-.999-2.231-2.231-2.231s-2.231.999-2.231,2.231.999,2.231,2.231,2.231,2.231-.999,2.231-2.231Z" fill="#2c367c" stroke-width="0"/>
        <path d="M213.792,159.105c0-1.232-.999-2.231-2.231-2.231s-2.231.999-2.231,2.231.999,2.231,2.231,2.231,2.231-.999,2.231-2.231Z" fill="#2c367c" stroke-width="0"/>
        <path d="M232.368,149.003l-11.583,1.619c-.386.054-.716-.276-.662-.662l1.622-11.603c.049-.353-.225-.667-.581-.667h-5.661c-.356,0-.63.315-.581.667l1.623,11.61c.054.386-.276.716-.662.662l-11.63-1.626c-.353-.049-.667.225-.667.581v5.661c0,.356.315.63.667.581l11.63-1.626c.386-.054.716.276.662.662l-1.623,11.61c-.049.353.225.667.581.667h5.661c.356,0,.63-.315.581-.667l-1.622-11.603c-.054-.386.276-.716.662-.662l11.583,1.619c.353.049.667-.225.667-.581v-5.661c0-.356-.315-.63-.667-.581Z" fill="#2c367c" stroke-width="0"/>
      </g>
      <g>
        <path d="M157.446.879h-21.102c-.324,0-.586.262-.586.586v19.343c0,.324.262.586.586.586h21.395c.324,0,.586-.262.586-.586v-5.051c0-.145-.054-.284-.15-.392l-3.466-3.852c-.195-.217-.201-.544-.015-.767l3.203-3.843c.088-.105.136-.238.136-.375V1.465c0-.324-.262-.586-.586-.586ZM150.266,15.533h-6.741c-.324,0-.586-.262-.586-.586v-7.62c0-.324.262-.586.586-.586h6.448v.293l-3.052,3.715c-.183.223-.177.547.016.762l3.329,3.729v.293Z" fill="#2c367c" stroke-width="0"/>
        <path d="M179.198.938c-1.553-.625-3.248-.938-5.085-.938s-3.532.313-5.085.938c-1.554.626-2.897,1.456-4.03,2.491-1.133,1.036-2.022,2.223-2.667,3.561-.645,1.339-.967,2.721-.967,4.147s.322,2.809.967,4.147c.645,1.338,1.534,2.526,2.667,3.561,1.133,1.036,2.476,1.866,4.03,2.491,1.553.625,3.248.938,5.085.938s3.532-.313,5.085-.938c1.554-.625,2.896-1.456,4.03-2.491,1.133-1.036,2.022-2.223,2.667-3.561.645-1.338.967-2.721.967-4.147s-.322-2.808-.967-4.147c-.645-1.338-1.534-2.525-2.667-3.561-1.133-1.035-2.476-1.866-4.03-2.491ZM178.979,13.203c-.274.635-.65,1.192-1.128,1.67-.479.479-1.041.855-1.685,1.128-.645.274-1.329.41-2.052.41-.743,0-1.432-.136-2.066-.41-.635-.273-1.192-.649-1.67-1.128-.479-.479-.855-1.036-1.128-1.67-.274-.635-.41-1.323-.41-2.066,0-.722.136-1.407.41-2.052.273-.645.649-1.206,1.128-1.685s1.036-.855,1.67-1.128c.635-.274,1.323-.41,2.066-.41.722,0,1.407.137,2.052.41.645.274,1.206.65,1.685,1.128.479.479.855,1.041,1.128,1.685s.41,1.329.41,2.052c0,.743-.137,1.432-.41,2.066Z" fill="#2c367c" stroke-width="0"/>
        <path d="M213.669,20.547l-2.669-5.337c-.195-.39.089-.848.524-.848h1.25c.324,0,.586-.262.586-.586V1.465c0-.324-.262-.586-.586-.586h-21.102c-.324,0-.586.262-.586.586v19.343c0,.324.262.586.586.586h6.008c.324,0,.586-.262.586-.586v-5.862c0-.324.262-.586.586-.586h3.741c.222,0,.425.125.524.324l3.193,6.386c.099.199.302.324.524.324h6.309c.436,0,.719-.459.524-.848ZM205.593,9.085h-6.741c-.324,0-.586-.262-.586-.586v-1.465c0-.324.262-.586.586-.586h6.741c.324,0,.586.262.586.586v1.465c0,.324-.262.586-.586.586Z" fill="#2c367c" stroke-width="0"/>
        <path d="M240.587.879h-6.008c-.324,0-.586.262-.586.586v5.862h-.264l-7.338-6.306c-.106-.091-.242-.142-.382-.142h-6.377c-.324,0-.586.262-.586.586v19.343c0,.324.262.586.586.586h6.008c.324,0,.586-.262.586-.586v-11.137h.293l7.27,6.272c.129.111.203.273.203.444v4.421c0,.324.262.586.586.586h6.008c.324,0,.586-.262.586-.586V1.465c0-.324-.262-.586-.586-.586Z" fill="#2c367c" stroke-width="0"/>
        <path d="M273.558,6.155V1.465c0-.324-.262-.586-.586-.586h-14.214c-.324,0-.586.262-.586.586v4.689c0,.324.262.586.586.586h2.931c.324,0,.586.262.586.586v7.62c0,.324-.262.586-.586.586h-2.931c-.324,0-.586.262-.586.586v4.689c0,.324.262.586.586.586h14.214c.324,0,.586-.262.586-.586v-4.689c0-.324-.262-.586-.586-.586h-2.931c-.324,0-.586-.262-.586-.586v-7.62c0-.324.262-.586.586-.586h2.931c.324,0,.586-.262.586-.586Z" fill="#2c367c" stroke-width="0"/>
        <path d="M300.864,20.809V1.465c0-.324-.262-.586-.586-.586h-6.008c-.324,0-.586.262-.586.586v5.862h-.264l-7.338-6.306c-.106-.091-.242-.142-.382-.142h-6.377c-.324,0-.586.262-.586.586v19.343c0,.324.262.586.586.586h6.008c.324,0,.586-.262.586-.586v-11.137h.293l7.27,6.272c.129.111.203.273.203.444v4.421c0,.324.262.586.586.586h6.008c.324,0,.586-.262.586-.586Z" fill="#2c367c" stroke-width="0"/>
      </g>
    </g>
  </g>
</svg>