<?xml version="1.0" encoding="UTF-8"?>
<svg id="b" data-name="Layer 2" xmlns="http://www.w3.org/2000/svg" width="322.219" height="357.808" viewBox="0 0 322.219 357.808">
  <g id="c" data-name="Layer 1">
    <g>
      <g>
        <polygon points="0 204.326 9.877 204.326 9.877 239.949 0 239.949 0 250.474 32.79 250.474 32.79 239.949 22.993 239.949 22.993 204.326 32.79 204.326 32.79 193.801 0 193.801 0 204.326" fill="#171f53" stroke-width="0"/>
        <path d="M41.929,193.801v56.673h29.308c14.897,0,22.669-5.667,22.669-15.464,0-7.117-4.039-11.972-10.343-14-.008-.003-.009-.013-.002-.016,4.604-2.431,7.511-6.798,7.511-12.458,0-8.825-7.287-14.735-21.455-14.735h-27.689ZM80.709,233.634c0,4.858-3.643,6.963-10.444,6.963h-15.302v-14.006h15.302c6.801,0,10.444,2.267,10.444,7.044ZM77.876,210.317c0,4.453-3.481,6.72-9.877,6.72h-13.035v-13.359h13.035c6.396,0,9.877,2.186,9.877,6.639Z" fill="#171f53" stroke-width="0"/>
        <path d="M145.859,237.362c-.338-.824-1.322-1.167-2.094-.722-4.654,2.681-11.114,4.201-17.111,4.201-9.796,0-14.006-2.915-14.006-7.206,0-4.372,3.805-6.639,10.282-6.639h14.796c.816,0,1.477-.661,1.477-1.477v-7.409c0-.816-.661-1.477-1.477-1.477h-13.987c-5.91,0-8.663-2.267-8.663-6.153,0-4.129,3.967-7.044,12.711-7.044,4.856,0,9.646.869,14.369,2.851.778.326,1.67-.062,1.958-.855l2.638-7.269c.267-.735-.082-1.555-.801-1.862-5.067-2.167-11.79-3.471-18.649-3.471-17.407,0-25.503,7.853-25.503,16.759,0,4.25,1.743,7.939,4.901,10.409.813.636.702,1.906-.191,2.423-4.381,2.534-7.138,6.81-7.138,12.105,0,9.797,9.149,16.921,26.718,16.921,8.564,0,16.631-1.915,22.077-5.148.629-.373.885-1.154.607-1.831l-2.912-7.105Z" fill="#171f53" stroke-width="0"/>
        <path d="M193.431,232.26s.626-.268,1.298-.607c6.57-3.313,10.359-9.3,10.359-17.288,0-12.711-9.473-20.564-24.612-20.564h-24.532v56.673h13.116v-15.788h12.042s.159.199.39.533l10.561,15.255h14.087l-12.709-18.214ZM179.747,224.243h-10.687v-19.755h10.687c8.015,0,12.063,3.643,12.063,9.877,0,6.153-4.048,9.877-12.063,9.877Z" fill="#171f53" stroke-width="0"/>
        <path d="M251.257,232.26s.626-.268,1.298-.607c6.57-3.313,10.359-9.3,10.359-17.288,0-12.711-9.473-20.564-24.612-20.564h-24.532v56.673h13.116v-15.788h12.042s.159.199.39.533l10.561,15.255h14.087l-12.709-18.214ZM237.573,224.243h-10.687v-19.755h10.687c8.015,0,12.063,3.643,12.063,9.877,0,6.153-4.048,9.877-12.063,9.877Z" fill="#171f53" stroke-width="0" />
        <path d="M309.104,193.801v17.65c0,10.039-5.505,14.33-13.197,14.33-7.529,0-12.063-4.453-12.063-13.44v-18.54h-13.116v19.35c0,15.383,8.096,23.722,22.346,23.722,6.72,0,12.225-2.267,16.031-6.963v3.481c0,10.12-4.615,14.735-14.006,14.735-6.72,0-12.873-2.105-17.973-6.234,0,0,0,0,0,0l-5.1,9.714s0,.001,0,.002c5.505,4.695,13.52,7.61,23.397,7.61,16.516,0,26.798-9.23,26.798-26.475v-38.943h-13.116Z" fill="#171f53" stroke-width="0"/>
      </g>
      <g>
        <path d="M119.159,278.33v-14.652h15.908v4.186l-2.616,3.14,2.826,3.14v4.186h-16.117ZM124.287,274.144h5.233v-.209l-2.616-2.93,2.407-2.93v-.209h-5.024v6.279Z" fill="#171f53" stroke-width="0"/>
        <path d="M159.036,271.004c0,1.019-.23,2.006-.691,2.962-.46.956-1.096,1.804-1.905,2.543-.809.74-1.769,1.333-2.878,1.779-1.109.446-2.32.67-3.631.67s-2.522-.223-3.631-.67c-1.11-.446-2.069-1.04-2.878-1.779-.809-.74-1.444-1.587-1.905-2.543-.461-.956-.691-1.943-.691-2.962s.23-2.006.691-2.962c.46-.955,1.095-1.803,1.905-2.543.809-.739,1.769-1.332,2.878-1.779,1.109-.446,2.32-.67,3.631-.67s2.522.223,3.631.67c1.11.447,2.069,1.04,2.878,1.779.809.74,1.444,1.588,1.905,2.543.461.956.691,1.944.691,2.962ZM153.699,271.004c0-.516-.098-1.005-.293-1.465s-.464-.861-.806-1.204c-.342-.342-.743-.61-1.204-.806-.46-.195-.949-.293-1.465-.293-.531,0-1.022.098-1.476.293-.453.195-.851.464-1.193.806s-.611.743-.806,1.204c-.196.46-.293.949-.293,1.465,0,.531.097,1.022.293,1.476.195.453.464.851.806,1.193.342.342.74.611,1.193.806.453.196.945.293,1.476.293.516,0,1.005-.097,1.465-.293.46-.195.861-.464,1.204-.806s.61-.74.806-1.193c.195-.453.293-.945.293-1.476Z" fill="#171f53" stroke-width="0"/>
        <path d="M173.59,273.306h-3.349v5.024h-5.128v-14.652h15.908v9.628h-1.988l2.512,5.024h-5.442l-2.512-5.024ZM170.241,269.539h5.651v-1.884h-5.651v1.884Z" fill="#171f53" stroke-width="0"/>
        <path d="M199.121,268.283v-4.605h5.128v14.652h-5.128v-3.768l-5.337-4.605h-.209v8.373h-5.128v-14.652h5.128l5.358,4.605h.188Z" fill="#171f53"  stroke-width="0"/>
      </g>
      <path  d="M57.445,183.603h9.16c.695,0,1.259-.564,1.259-1.259v-77.421c0-24.907,9.699-48.323,27.311-65.935,17.612-17.612,41.028-27.311,65.935-27.311s48.323,9.699,65.935,27.311c17.612,17.612,27.311,41.028,27.311,65.935v77.421c0,.695.564,1.259,1.259,1.259h9.16c.695,0,1.259-.564,1.259-1.259v-76.646c0-28.25-11.051-55.493-31.132-75.365C215.057,10.695,188.754-.08,160.8,0c-28.179.081-55.243,11.569-74.899,31.761-19.174,19.696-29.715,45.619-29.715,73.162v77.421c0,.695.564,1.259,1.259,1.259Z" fill="#171f53" stroke-width="0"/>
      <path  d="M264.838,260.712h-10.044c-.434,0-.793.331-.832.764-1.966,21.664-11.346,41.773-26.917,57.344-17.612,17.612-41.028,27.311-65.935,27.311s-48.323-9.699-65.935-27.311c-15.571-15.571-24.95-35.68-26.917-57.344-.039-.432-.398-.764-.832-.764h-10.043c-.49,0-.88.419-.84.908,2.023,24.71,12.612,47.672,30.328,65.41,19.606,19.63,46.313,30.731,74.057,30.778,28.094.047,54.514-10.871,74.374-30.731,17.744-17.744,28.35-40.725,30.375-65.458.04-.488-.349-.907-.839-.907Z" fill="#171f53" stroke-width="0"/>
      <path d="M237.835,182.343v-9.764c0-.695-.564-1.259-1.259-1.259H85.643c-.695,0-1.259.564-1.259,1.259v9.7c0,.695.563,1.258,1.258,1.259l150.933.064c.695,0,1.259-.563,1.259-1.259Z" fill="#171f53" stroke-width="0"/>
      <path d="M112.829,307.008l-4.359-4.968c-.153-.174-.418-.191-.592-.039l-1.892,1.66c-.174.153-.192.418-.039.592l1.107,1.262c.153.174.136.439-.039.592l-.157.138c-.174.153-.439.136-.592-.039l-2.942-3.353c-.105-.119-.133-.288-.073-.435l1.151-2.824c.05-.122.154-.214.282-.248l2.95-.773c.154-.04.317.01.422.129l2.942,3.353c.153.174.136.439-.039.592h0c-.174.153-.191.418-.039.592l2.698,3.075c.153.174.418.191.592.039l3.153-2.767c.174-.153.191-.418.039-.592l-8.479-9.664c-.104-.118-.265-.168-.417-.13l-7.553,1.889c-.131.033-.239.127-.289.253l-2.855,7.243c-.058.146-.029.312.075.431l8.479,9.664c.153.174.418.191.592.039l5.835-5.119c.174-.153.192-.418.039-.592Z" fill="#171f53" stroke-width="0"/>
      <path d="M130.032,317.8l2.587-4.073c.124-.196.066-.455-.129-.579l-12.131-7.705c-.196-.124-.455-.066-.579.129l-7.424,11.689c-.124.196-.066.455.129.579l12.132,7.704c.196.124.455.066.579-.129l2.586-4.073c.124-.196.066-.455-.129-.579l-3.453-2.193c-.196-.124-.455-.066-.579.129l-.45.708c-.124.196-.384.253-.579.129l-3.631-2.306c-.196-.124-.253-.384-.129-.579l.337-.531c.124-.196.384-.254.579-.129l2.656,1.687c.196.124.455.066.579-.129l1.462-2.303c.124-.196.066-.455-.129-.579l-2.657-1.687c-.196-.124-.254-.384-.129-.579l.45-.708c.124-.196.384-.253.579-.129l3.63,2.306c.196.124.253.383.129.579l-.45.708c-.124.196-.066.455.129.579l3.453,2.193c.196.124.455.066.579-.129Z" fill="#171f53" stroke-width="0"/>
      <path d="M133.229,327.278c.58.933,1.345,1.766,2.295,2.497.949.732,2.057,1.275,3.322,1.631,1.265.356,2.494.469,3.686.338,1.192-.129,2.278-.442,3.26-.936.981-.494,1.823-1.14,2.527-1.937.704-.797,1.194-1.687,1.47-2.671.276-.983.322-1.998.136-3.045-.185-1.047-.568-2.037-1.148-2.97-.58-.933-1.345-1.766-2.294-2.498-.95-.731-2.057-1.275-3.323-1.631-1.266-.356-2.494-.469-3.686-.339-1.192.13-2.278.442-3.26.936-.982.494-1.824,1.14-2.528,1.937-.704.797-1.193,1.688-1.469,2.671-.277.983-.322,1.998-.137,3.045.185,1.047.568,2.037,1.148,2.97ZM137.368,322.71c.14-.498.366-.942.679-1.334.314-.391.682-.706,1.105-.943.422-.237.879-.388,1.37-.453.49-.066.991-.027,1.503.117.498.14.943.366,1.334.68.391.313.706.681.943,1.104.237.422.387.883.451,1.38.063.497.025.995-.115,1.493-.144.512-.372.96-.683,1.344-.312.385-.679.696-1.101.933-.423.237-.883.388-1.38.451-.497.064-.995.025-1.493-.114-.512-.144-.96-.371-1.344-.683-.385-.311-.696-.678-.933-1.101-.238-.422-.388-.879-.454-1.369-.066-.49-.027-.992.118-1.503Z" fill="#171f53" stroke-width="0"/>
      <path d="M165.266,333.63l4.515-.091c.312-.006.508-.339.363-.615l-1.987-3.781c-.145-.276.051-.608.363-.615l.894-.018c.232-.005.416-.196.411-.428l-.178-8.81c-.005-.232-.196-.416-.428-.411l-15.102.304c-.232.005-.416.196-.411.428l.279,13.844c.005.232.196.416.428.411l4.3-.086c.232-.005.416-.196.411-.428l-.084-4.196c-.005-.232.179-.423.411-.428l2.678-.054c.159-.003.306.084.38.224l2.378,4.524c.074.141.221.228.38.224ZM158.947,324.524l-.021-1.048c-.005-.232.179-.423.411-.428l4.824-.097c.232-.005.423.179.428.411l.021,1.049c.005.232-.179.423-.411.428l-4.824.097c-.232.005-.423-.179-.428-.411Z" fill="#171f53" stroke-width="0"/>
      <path d="M191.774,327.065l-2.401-7.382c-.072-.22-.308-.341-.529-.269l-6.285,2.044c-.22.072-.341.308-.269.529l.779,2.394c.072.22.308.341.529.269l1.596-.519c.22-.072.457.049.529.269l.065.199c.072.22-.049.457-.269.529l-4.243,1.38c-.151.049-.317.009-.429-.104l-2.14-2.171c-.093-.094-.136-.226-.116-.357l.453-3.016c.024-.157.134-.287.285-.337l4.242-1.38c.22-.072.457.049.529.269h0c.072.22.308.341.529.269l3.891-1.266c.22-.072.341-.308.269-.529l-1.298-3.99c-.072-.22-.308-.341-.529-.269l-12.226,3.977c-.15.049-.259.177-.284.332l-1.244,7.685c-.022.134.023.27.119.365l5.527,5.482c.112.111.276.15.425.101l12.225-3.977c.22-.072.341-.308.269-.529Z" fill="#171f53" stroke-width="0"/>
      <path d="M197.824,324.284l8.586-5.46c.196-.124.253-.384.129-.579l-1.801-2.833c-.124-.196-.384-.253-.579-.129l-1.77,1.126c-.196.124-.455.067-.579-.129l-2.927-4.603c-.124-.196-.067-.455.129-.579l1.77-1.126c.196-.124.253-.384.129-.579l-1.801-2.833c-.124-.196-.384-.253-.579-.129l-8.586,5.46c-.196.124-.253.384-.129.579l1.801,2.833c.124.196.384.253.579.129l1.77-1.126c.196-.124.455-.067.579.129l2.927,4.603c.124.196.067.455-.129.579l-1.77,1.126c-.196.124-.253.384-.129.579l1.801,2.833c.124.196.384.253.579.129Z" fill="#171f53" stroke-width="0"/>
      <path d="M220.249,305.821l3.242-3.456c.208-.221.119-.583-.167-.683l-14.293-5.002c-.157-.055-.331-.012-.445.109l-4.077,4.344c-.114.121-.145.298-.08.451l5.902,13.946c.118.279.485.345.692.124l3.242-3.455c.117-.124.146-.307.076-.462l-.803-1.755c-.071-.155-.041-.337.076-.462l3.921-4.179c.117-.124.297-.166.456-.105l1.803.689c.159.061.339.019.456-.105ZM212.094,305.621c-.203.216-.559.16-.685-.108l-1.567-3.317.143-.153,3.411,1.353c.275.109.354.461.151.677l-1.453,1.549Z" fill="#171f53" stroke-width="0"/>
      <path d="M146.195,132.221c0,2.046,1.659,3.705,3.705,3.705s3.705-1.659,3.705-3.705-1.659-3.705-3.705-3.705-3.705,1.659-3.705,3.705Z" fill="#171f53" stroke-width="0"/>
      <path d="M176.101,132.221c0-2.046-1.659-3.705-3.705-3.705s-3.705,1.659-3.705,3.705,1.659,3.705,3.705,3.705,3.705-1.659,3.705-3.705Z" fill="#171f53" stroke-width="0"/>
      <path d="M176.101,154.443c0-2.046-1.659-3.705-3.705-3.705s-3.705,1.659-3.705,3.705,1.659,3.705,3.705,3.705,3.705-1.659,3.705-3.705Z" fill="#171f53" stroke-width="0"/>
      <path d="M153.605,154.443c0-2.046-1.659-3.705-3.705-3.705s-3.705,1.659-3.705,3.705,1.659,3.705,3.705,3.705,3.705-1.659,3.705-3.705Z" fill="#171f53" stroke-width="0"/>
      <path d="M236.911,114.713c-6.682-1.098-40.885-6.422-75.8-6.422s-69.377,5.364-75.876,6.435c-.594.098-1.045.604-1.047,1.206-.021,6.184,5.612,10.839,11.675,9.655,2.72-.531,5.798-1.074,9.103-1.556,2.766-.404,5.151,1.948,4.774,4.718l-5.125,37.605c-.103.756.484,1.429,1.247,1.429h9.397c.657,0,1.204-.506,1.255-1.161l1.192-15.274c.416-3.052,3.023-5.328,6.103-5.328s5.687,2.276,6.103,5.328l1.413,15.292c.06.648.603,1.143,1.253,1.143h9.414c.763,0,1.35-.673,1.247-1.429l-2.254-16.54c-.094-.687.386-1.321,1.073-1.417l15.022-2.1c.64-.089,1.188.458,1.099,1.099l-2.695,19.278c-.082.585.373,1.108.964,1.108h9.399c.591,0,1.046-.523.964-1.108l-2.693-19.267c-.089-.64.459-1.188,1.099-1.099l15.078,2.108c.687.096,1.167.729,1.073,1.417l-2.251,16.521c-.103.756.484,1.429,1.247,1.429h9.404c.654,0,1.2-.501,1.254-1.154l1.208-14.411c.416-3.052,3.023-5.328,6.103-5.328h0c3.08,0,5.687,2.276,6.103,5.328l1.387,14.426c.062.646.604,1.138,1.253,1.138h9.418c.763,0,1.35-.673,1.247-1.429l-5.122-37.584c-.378-2.77,2.011-5.125,4.777-4.717,3.133.462,6.042.98,8.621,1.489,6.087,1.202,11.797-3.339,11.981-9.542h0c0-.638-.459-1.182-1.089-1.285ZM157.08,140.368l-16.776-2.345c-.558-.078-.997-.518-1.073-1.077l-1.565-11.487c-.331-2.432,1.492-4.62,3.944-4.747,4.199-.217,8.483-.374,12.792-.458.637-.012,1.184.455,1.272,1.086l2.506,17.928c.089.64-.458,1.188-1.099,1.099ZM165.218,140.357c-.64.089-1.188-.458-1.099-1.099l2.504-17.915c.088-.631.635-1.099,1.272-1.086,4.334.085,8.642.245,12.864.464,2.448.127,4.26,2.328,3.929,4.757l-1.56,11.449c-.076.559-.515.999-1.073,1.077l-16.837,2.353Z" fill="#171f53" stroke-width="0"/>
      <path d="M110.715,92.715l-24.997,2.364c-1.399.132-1.733,2.025-.463,2.627l21.203,10.069c.965.458,2.046.614,3.102.455l.064-.01c2.116-.316,3.645-2.264,3.351-4.384-.116-.833-.127-1.699-.021-2.585.538-4.485,4.169-8.076,8.659-8.57,4.261-.469,8.014,1.805,9.811,5.262.081.149.403.692.971.692s.892-.441,1.042-1.013c3.008-11.976,14.776-20.865,27.674-20.914,12.898.049,24.666,8.938,27.674,20.914.15.572.474,1.013,1.042,1.013s.89-.543.971-.692c1.798-3.457,5.55-5.731,9.811-5.262,4.49.494,8.121,4.085,8.659,8.57.106.886.095,1.752-.021,2.585-.295,2.119,1.235,4.067,3.351,4.384l.064.01c1.057.158,2.137.003,3.102-.455l21.203-10.069c1.269-.603.936-2.495-.463-2.627l-24.997-2.364c-1.161-.11-1.674-1.519-.855-2.349l17.629-17.879c.987-1.001.026-2.665-1.334-2.311l-24.298,6.328c-1.129.294-2.092-.855-1.607-1.915l10.451-22.83c.585-1.278-.887-2.513-2.044-1.715l-20.669,14.257c-.96.662-2.258-.087-2.165-1.25l2.013-25.028c.113-1.401-1.693-2.058-2.507-.912l-14.546,20.466c-.676.951-2.152.69-2.462-.434l-6.669-24.207c-.187-.677-.76-1.016-1.334-1.016s-1.147.339-1.334,1.016l-6.669,24.207c-.31,1.124-1.786,1.385-2.462.434l-14.546-20.466c-.814-1.145-2.62-.488-2.507.912l2.013,25.028c.093,1.162-1.205,1.912-2.165,1.25l-20.669-14.257c-1.157-.798-2.629.437-2.044,1.715l10.451,22.83c.485,1.06-.478,2.209-1.607,1.915l-24.298-6.328c-1.36-.354-2.321,1.31-1.334,2.311l17.629,17.879c.819.83.306,2.239-.855,2.349Z" fill="#171f53" stroke-width="0"/>
      <g>
        <path d="M157.426,294.741c0,.167-.135.302-.302.302h-1.512c-.167,0-.302.135-.302.302v3.932c0,.167.135.302.302.302h1.512c.167,0,.302.135.302.302v2.42c0,.167-.135.302-.302.302h-7.334c-.167,0-.302-.135-.302-.302v-2.42c0-.167.135-.302.302-.302h1.512c.167,0,.302-.135.302-.302v-3.932c0-.167-.135-.302-.302-.302h-1.512c-.167,0-.302-.135-.302-.302v-2.42c0-.167.135-.302.302-.302h7.334c.167,0,.302.135.302.302v2.42Z" fill="#171f53" stroke-width="0"/>
        <path d="M171.515,302.302c0,.167-.135.302-.302.302h-3.1c-.167,0-.302-.135-.302-.302v-2.281c0-.088-.038-.171-.105-.229l-3.751-3.236h-.151v5.746c0,.167-.135.302-.302.302h-3.1c-.167,0-.302-.135-.302-.302v-9.981c0-.167.135-.302.302-.302h3.29c.073,0,.142.026.198.073l3.786,3.254h.136v-3.025c0-.167.135-.302.302-.302h3.1c.167,0,.302.135.302.302v9.981Z" fill="#171f53" stroke-width="0"/>
      </g>
    </g>
  </g>
</svg>



